<svg id="svg" version="1.1" xmlns="http://www.w3.org/2000/svg" style="display: block;" viewBox="0 0 1008 414"><path d="M0 0 C1.12305038 -0.01606293 2.24610077 -0.03212585 3.40318298 -0.04867554 C8.61886767 -0.09334044 13.83446357 -0.13475202 19.05029297 -0.15722656 C21.78241695 -0.17040349 24.51376481 -0.19793141 27.24560547 -0.23925781 C42.94416107 -0.47160222 56.90345547 -0.10811023 71.75610352 5.19287109 C73.47987611 5.63131895 75.20787199 6.05445826 76.94360352 6.44287109 C86.7642079 9.43322814 98.69251542 16.8245089 105.75610352 24.19287109 C106.48266602 26.39208984 106.48266602 26.39208984 106.75610352 28.19287109 C107.41610352 28.19287109 108.07610352 28.19287109 108.75610352 28.19287109 C120.27637361 43.66294808 122.25427412 61.59416837 122.03735352 80.22900391 C122.00567464 82.98011592 121.9963178 85.73065565 121.99047852 88.48193359 C121.98132639 90.23454482 121.97095642 91.98715021 121.95922852 93.73974609 C121.95497864 94.56045593 121.95072876 95.38116577 121.9463501 96.22674561 C121.87346413 101.95814987 121.87346413 101.95814987 120.75610352 104.19287109 C113.63359639 105.73608097 113.63359639 105.73608097 110.13110352 103.56787109 C108.95547852 102.88724609 108.95547852 102.88724609 107.75610352 102.19287109 C106.98492188 102.65129395 106.21374023 103.1097168 105.41918945 103.58203125 C100.3179408 106.33223434 94.40776485 105.61960468 88.77172852 105.59130859 C87.51978699 105.59417877 86.26784546 105.59704895 84.97796631 105.6000061 C82.33842531 105.60204396 79.69972333 105.59805082 77.06030273 105.58398438 C73.67499823 105.56682239 70.29040365 105.57678766 66.90512466 105.59470177 C63.67313344 105.60812573 60.44122897 105.59874094 57.20922852 105.59130859 C55.99156799 105.59738129 54.77390747 105.60345398 53.51934814 105.60971069 C52.3976825 105.60025421 51.27601685 105.59079773 50.12036133 105.58105469 C49.1303009 105.57866791 48.14024048 105.57628113 47.12017822 105.57382202 C46.34003357 105.44810822 45.55988892 105.32239441 44.75610352 105.19287109 C42.62789411 102.00055698 42.49303965 101.07556203 42.41235352 97.39599609 C42.38423584 96.444104 42.35611816 95.49221191 42.32714844 94.51147461 C42.30370361 93.49883545 42.28025879 92.48619629 42.25610352 91.44287109 C42.26463241 72.95853097 42.26463241 72.95853097 35.75610352 56.19287109 C33.00074145 54.06372768 31.28355929 53.11484781 27.76782227 53.29443359 C22.79250951 54.25014339 19.98722434 56.20148654 16.75610352 60.19287109 C10.37144322 71.08435042 12.2687599 85.92626723 14.77172852 97.62646484 C18.97682827 112.86160801 31.31530534 121.16933368 44.39672852 128.71630859 C45.86444425 129.51820626 47.33755182 130.31041121 48.81860352 131.08740234 C50.75610352 132.19287109 50.75610352 132.19287109 52.74829102 133.68896484 C54.72777896 135.17165523 56.69312942 136.29640496 58.88110352 137.44287109 C64.1270831 140.32217911 68.93357307 143.65771106 73.75610352 147.19287109 C74.58658203 147.79204346 74.58658203 147.79204346 75.43383789 148.40332031 C77.21785061 149.69520851 78.98813918 151.00412781 80.75610352 152.31787109 C81.32039062 152.72545654 81.88467773 153.13304199 82.46606445 153.55297852 C85.83572976 156.09768158 87.67378133 158.08405539 88.75610352 162.19287109 C88.88110352 165.50537109 88.88110352 165.50537109 88.75610352 168.19287109 C89.49860352 167.86287109 90.24110352 167.53287109 91.00610352 167.19287109 C93.75610352 166.19287109 93.75610352 166.19287109 97.75610352 166.19287109 C97.75610352 166.85287109 97.75610352 167.51287109 97.75610352 168.19287109 C98.31297852 168.39912109 98.86985352 168.60537109 99.44360352 168.81787109 C102.66911703 170.73574399 104.93372934 172.93678657 106.75610352 176.19287109 C107.48370959 179.65266118 107.54596029 183.04056045 107.56860352 186.56787109 C107.59374023 187.49470703 107.61887695 188.42154297 107.64477539 189.37646484 C107.70334659 191.6490275 107.73984365 193.91967788 107.75610352 196.19287109 C108.76930664 196.10585938 108.76930664 196.10585938 109.80297852 196.01708984 C117.09096524 195.6484778 117.09096524 195.6484778 120.25219727 198.23583984 C121.96613995 201.60585182 123.04684737 204.82745066 123.81860352 208.50537109 C123.98142822 209.26027832 124.14425293 210.01518555 124.31201172 210.79296875 C126.7024099 222.87483444 127.50805486 235.24546789 128.46118164 247.50927734 C128.70914363 250.60633907 128.99567338 253.69508518 129.30297852 256.78662109 C130.14769952 266.30798252 129.50268019 275.29369243 128.13110352 284.75537109 C127.97891357 285.8264209 127.82672363 286.8974707 127.66992188 288.00097656 C126.45825889 295.36738244 124.11714323 301.54871051 120.75610352 308.19287109 C120.21985352 309.34787109 119.68360352 310.50287109 119.13110352 311.69287109 C117.82465404 314.06823378 116.66073516 315.32028854 114.75610352 317.19287109 C113.62721222 318.54379552 112.50240467 319.89814006 111.38110352 321.25537109 C108.68949029 324.38037967 106.72875284 325.9076022 102.75610352 327.19287109 C102.42610352 328.18287109 102.09610352 329.17287109 101.75610352 330.19287109 C99.79682518 331.27047418 97.78423722 332.25123759 95.75610352 333.19287109 C94.29347203 334.01863721 92.83539411 334.85250248 91.38110352 335.69287109 C83.64970553 339.9809809 75.5513785 342.13065804 67.04907227 344.32568359 C64.93316781 344.88289687 62.8318647 345.5009507 60.75610352 346.19287109 C51.88459068 347.37741968 42.91807343 347.37915736 33.98364258 347.37817383 C31.75916604 347.38036807 29.53518101 347.39862556 27.31079102 347.41748047 C4.25178668 347.50972802 -15.62851659 340.85671726 -35.24389648 329.19287109 C-36.1578418 328.66177734 -37.07178711 328.13068359 -38.01342773 327.58349609 C-40.89294339 325.78821138 -42.92602545 323.67630434 -45.24389648 321.19287109 C-45.80334961 320.60376953 -46.36280273 320.01466797 -46.93920898 319.40771484 C-62.14453314 302.85300045 -65.4222835 281.45623954 -65.37670898 259.77490234 C-65.37766571 258.75103928 -65.37862244 257.72717621 -65.37960815 256.67228699 C-65.38028224 254.53551165 -65.37848244 252.39873417 -65.37426758 250.26196289 C-65.36884675 246.97521485 -65.3742697 243.68859968 -65.38061523 240.40185547 C-65.37995551 238.31787079 -65.37867654 236.2338862 -65.37670898 234.14990234 C-65.37873322 233.16464066 -65.38075745 232.17937897 -65.38284302 231.16426086 C-65.37969086 230.26209335 -65.3765387 229.35992584 -65.37329102 228.43041992 C-65.37209763 227.2356176 -65.37209763 227.2356176 -65.37088013 226.01667786 C-65.24389648 224.19287109 -65.24389648 224.19287109 -64.24389648 223.19287109 C-61.84580499 223.09259314 -59.4765015 223.05668433 -57.07788086 223.06347656 C-56.32831619 223.06172424 -55.57875153 223.05997192 -54.80647278 223.0581665 C-52.31684079 223.05374789 -49.82727925 223.056686 -47.33764648 223.06005859 C-45.61511217 223.05938556 -43.89257794 223.05841553 -42.17004395 223.05715942 C-38.55516661 223.05568244 -34.94031393 223.05783702 -31.32543945 223.0625 C-26.68123156 223.06819729 -22.03708144 223.06491829 -17.39287567 223.05892754 C-13.83452923 223.05532194 -10.27619658 223.0564605 -6.71784973 223.05905533 C-5.00494887 223.0597246 -3.29204676 223.05889616 -1.57914734 223.05657578 C0.81063173 223.05404927 3.20031593 223.05788979 5.59008789 223.06347656 C6.66234871 223.06044022 6.66234871 223.06044022 7.75627136 223.05734253 C12.64184083 223.07860841 12.64184083 223.07860841 13.75610352 224.19287109 C13.85850265 225.99673813 13.89181477 227.80456742 13.89794922 229.61132812 C13.9085009 231.34916061 13.9085009 231.34916061 13.91926575 233.12210083 C13.92343002 234.38553314 13.9275943 235.64896545 13.93188477 236.95068359 C13.94914346 238.92426912 13.96642589 240.89785477 13.98508739 242.87142754 C14.03068688 247.75165636 14.06836098 252.63177713 14.08203125 257.51220703 C14.09018541 260.24400823 14.10881372 262.97535364 14.13896179 265.70700073 C14.16706839 268.28119754 14.18002798 270.85561491 14.17610168 273.42996216 C14.27094226 280.20166605 14.59702825 284.73332377 18.75610352 290.19287109 C22.78264547 292.98862796 27.95166124 293.81953748 32.75610352 293.19287109 C36.89841873 291.53594501 40.08225215 289.78874018 42.75610352 286.19287109 C45.78142677 278.83004707 46.26609733 271.69847897 46.19360352 263.81787109 C46.18550659 262.12561401 46.18550659 262.12561401 46.17724609 260.39916992 C45.96868417 248.71558037 45.32749993 235.22884328 38.75610352 225.19287109 C38.75610352 224.53287109 38.75610352 223.87287109 38.75610352 223.19287109 C36.77610352 222.20287109 36.77610352 222.20287109 34.75610352 221.19287109 C34.75610352 220.53287109 34.75610352 219.87287109 34.75610352 219.19287109 C34.17989258 218.92603516 33.60368164 218.65919922 33.01000977 218.38427734 C29.94783191 216.7656218 27.37604608 214.66610815 24.65844727 212.53271484 C22.69310771 211.01201833 22.69310771 211.01201833 19.75610352 210.19287109 C18.73312429 209.21639093 17.737061 208.21155771 16.75610352 207.19287109 C14.45126547 205.24262352 12.33603466 203.48283666 9.63110352 202.13037109 C7.4954134 201.06252604 6.21370379 200.08775145 4.75610352 198.19287109 C4.75610352 196.87287109 4.75610352 195.55287109 4.75610352 194.19287109 C5.92979492 194.21027344 5.92979492 194.21027344 7.12719727 194.22802734 C8.13911133 194.23705078 9.15102539 194.24607422 10.19360352 194.25537109 C11.70760742 194.27277344 11.70760742 194.27277344 13.25219727 194.29052734 C15.69631419 194.47899785 15.69631419 194.47899785 16.75610352 193.19287109 C15.71711914 193.23927734 14.67813477 193.28568359 13.60766602 193.33349609 C5.0989603 193.60341899 -1.61385097 193.35258963 -9.24389648 189.19287109 C-10.3434668 188.61021484 -11.44303711 188.02755859 -12.57592773 187.42724609 C-23.20545994 181.64978954 -32.93485097 175.05145666 -41.24389648 166.19287109 C-42.06889648 165.40912109 -42.89389648 164.62537109 -43.74389648 163.81787109 C-51.15016818 156.04128581 -56.37999356 147.82914997 -60.21655273 137.81787109 C-61.23842744 135.09490407 -61.23842744 135.09490407 -62.72827148 132.19677734 C-65.05354436 126.77819797 -65.62756775 120.92860866 -66.43139648 115.13037109 C-66.60356689 113.8919043 -66.7757373 112.6534375 -66.953125 111.37744141 C-69.14954513 94.4879152 -69.07971541 78.78943417 -65.24389648 62.19287109 C-64.90538156 60.4021762 -64.57136438 58.61061908 -64.24389648 56.81787109 C-61.70594142 44.49950385 -57.07335511 35.01603801 -49.24389648 25.19287109 C-48.80948242 24.63470703 -48.37506836 24.07654297 -47.92749023 23.50146484 C-45.33589488 20.25993962 -42.64220364 17.58087071 -39.24389648 15.19287109 C-38.58389648 15.19287109 -37.92389648 15.19287109 -37.24389648 15.19287109 C-36.91389648 14.20287109 -36.58389648 13.21287109 -36.24389648 12.19287109 C-33.74389648 10.75537109 -33.74389648 10.75537109 -30.24389648 9.19287109 C-29.31770508 8.72880859 -29.31770508 8.72880859 -28.37280273 8.25537109 C-22.82662707 5.57139951 -17.16494985 3.97963642 -11.20898438 2.49975586 C-1.25865696 0.0163237 -1.25865696 0.0163237 0 0 Z " transform="translate(562.243896484375,37.80712890625)" style="fill: #8A0000;"/><path d="M0 0 C122 0 122 0 124 1 C126.29024405 1.13179154 128.58243474 1.23045523 130.875 1.3125 C143.62541607 2.02803032 154.06307791 7.2520733 165.20849609 13.07617188 C166.89507677 13.94589405 168.60329377 14.77328674 170.3125 15.59765625 C175.27326392 18.1861944 178.73609137 22.52723632 182 27 C182 27.66 182 28.32 182 29 C182.66 29 183.32 29 184 29 C184.94922513 31.84767538 185.0858548 33.41339018 184.9921875 36.34375 C184.96705078 37.59478516 184.96705078 37.59478516 184.94140625 38.87109375 C184.89713 40.62391252 184.84504356 42.37655139 184.78515625 44.12890625 C184.77097656 44.96292969 184.75679687 45.79695313 184.7421875 46.65625 C184.7201123 47.41744141 184.69803711 48.17863281 184.67529297 48.96289062 C185.08280497 51.51949221 186.04124679 52.37834055 188 54 C187.67 54.99 187.34 55.98 187 57 C186.01 57.33 185.02 57.66 184 58 C183.58219121 60.37305578 183.58219121 60.37305578 184 63 C185.64333504 64.03789581 187.31243867 65.03567924 189 66 C191.2893529 69.64215235 191.28429128 72.938735 190.58984375 77.06640625 C189.53247298 80.5326217 187.95101327 81.97117838 185 84 C181.99748266 84.67393187 179.07239839 84.92636954 176 85 C177.52351923 88.07956297 177.52351923 88.07956297 180 91 C182.86104088 91.67889106 185.07931851 92 188 92 C188.80060032 95.55750625 189.18915234 98.91671077 189.25 102.5625 C189.28867187 103.95662109 189.28867187 103.95662109 189.328125 105.37890625 C188.94338493 108.45224656 187.9501792 109.65384533 186 112 C185.01294797 115.00331073 185.01294797 115.00331073 185 118 C186.35444301 119.77190909 186.35444301 119.77190909 188 121 C188 121.66 188 122.32 188 123 C187.175 123.680625 186.35 124.36125 185.5 125.0625 C182.47009775 128.62263514 182.39011042 130.35183592 182.62109375 134.8671875 C183.11824198 137.66556826 184.53931524 139.58669474 186 142 C185.6875 145.8125 185.6875 145.8125 185 149 C181.04 148.01 181.04 148.01 177 147 C178.08603408 151.34413633 178.93060524 152.02088156 182 155 C184.22353293 157.91359488 185.01446226 159.30581175 184.9375 163 C183.77303516 166.72628749 182.95842377 168.39376954 180 171 C177.27564427 171.97388371 174.57482498 172.68470588 171.75390625 173.32421875 C169.03526756 173.99134569 166.57154684 174.90324227 164 176 C163 175 163 175 162.625 172.25 C163.11803722 167.97701074 164.71956106 166.65559342 168 164 C168.66 164 169.32 164 170 164 C170.12469099 158.42169984 170.12469099 158.42169984 169 153 C170.2065625 152.38125 170.2065625 152.38125 171.4375 151.75 C174.11938098 150.26221364 174.11938098 150.26221364 174.875 147.875 C174.91625 147.25625 174.9575 146.6375 175 146 C173.9682203 144.78332024 173.9682203 144.78332024 171.8125 144.5625 C168.05887894 145.14639661 166.77385076 146.90421233 164.33203125 149.6875 C163 151 163 151 161 151 C160.67 151.99 160.34 152.98 160 154 C159.67 154 159.34 154 159 154 C158.690625 152.88625 158.38125 151.7725 158.0625 150.625 C157.17673517 147.2054845 157.17673517 147.2054845 156 145 C156.33 144.34 156.66 143.68 157 143 C157.039992 141.00039988 157.04346799 138.99952758 157 137 C154.75637427 136.7715451 154.75637427 136.7715451 152.875 139 C151.946875 139.99 151.946875 139.99 151 141 C151.75150023 144.27773504 151.75150023 144.27773504 155 146 C153.02 146.99 153.02 146.99 151 148 C151 150.31 151 152.62 151 155 C153.31 155.66 155.62 156.32 158 157 C156.625 158.5 156.625 158.5 155 160 C154.34 160 153.68 160 153 160 C152.67 160.99 152.34 161.98 152 163 C148.62132353 165.46552067 147.29441798 166 143 166 C141.4725361 169.0549278 141.76008168 172.2763314 141.68359375 175.6328125 C141.6524221 176.76056595 141.6524221 176.76056595 141.62062073 177.91110229 C141.55517295 180.31564085 141.49626262 182.72028967 141.4375 185.125 C141.39431023 186.75391771 141.35069579 188.38282422 141.30664062 190.01171875 C141.19949649 194.00769915 141.09821567 198.00379059 141 202 C129.61253044 206.87035344 117.80566035 207.4882166 105.625 207.6875 C104.19528371 207.72079076 102.76559504 207.7552905 101.3359375 207.79101562 C97.89082912 207.87454221 94.44564354 207.94196338 91 208 C89.69773757 210.60452487 89.86344183 212.51699476 89.84851074 215.43482971 C89.84016708 216.58887299 89.83182343 217.74291626 89.82322693 218.93193054 C89.81904251 220.20422012 89.81485809 221.4765097 89.81054688 222.78735352 C89.80260679 224.13576518 89.79421902 225.48417427 89.78541565 226.83258057 C89.76734251 229.73929157 89.75233283 232.64599685 89.73963928 235.55273628 C89.71945057 240.14448311 89.69179491 244.73616602 89.66296387 249.3278656 C89.59771417 259.90256369 89.54229517 270.47730912 89.48697662 281.05206299 C89.43617859 290.74464798 89.38333497 300.43720975 89.32245111 310.12973732 C89.29403575 314.69893088 89.270464 319.2681167 89.25052643 323.83735478 C89.23717765 326.67375211 89.21976352 329.51011368 89.20121574 332.34648132 C89.18970779 334.29883664 89.18318403 336.25121931 89.17677307 338.20359802 C89.16842941 339.35482147 89.16008575 340.50604492 89.15148926 341.69215393 C89.14633553 342.69891961 89.14118179 343.70568529 89.13587189 344.74295902 C89 347 89 347 88 348 C85.40530948 348.13571196 82.83568907 348.20727126 80.23901367 348.23706055 C79.42599289 348.25017273 78.61297211 348.26328491 77.77531433 348.27679443 C75.07291468 348.31875904 72.37048517 348.35316869 69.66796875 348.38671875 C67.79567782 348.41236198 65.92338881 348.43814602 64.05110168 348.46406555 C60.11930972 348.51712377 56.18748978 348.56603415 52.25561523 348.61254883 C47.21470276 348.67285824 42.1741015 348.74708354 37.13343334 348.82492352 C33.26365268 348.88251081 29.39379671 348.93081583 25.52385902 348.976511 C23.66546494 348.99993411 21.80710983 349.02669306 19.94881248 349.05682945 C17.34894266 349.09796893 14.74923852 349.12616316 12.14916992 349.15112305 C10.99490509 349.17357841 10.99490509 349.17357841 9.81732178 349.19648743 C5.71333636 349.22084929 3.7814565 348.89072825 0 347 C0 232.49 0 117.98 0 0 Z " transform="translate(271,37)" style="fill: #8A0000;"/><path d="M0 0 C66 0 132 0 200 0 C200 66 200 66 199 67 C197.37420782 67.12281952 195.74322996 67.17782504 194.11303711 67.20532227 C193.07203354 67.22526749 192.03102997 67.24521271 190.95848083 67.26576233 C189.8262056 67.28247482 188.69393036 67.29918732 187.52734375 67.31640625 C186.37456436 67.33718735 185.22178497 67.35796844 184.03407288 67.37937927 C180.33527843 67.44499964 176.63641041 67.50381755 172.9375 67.5625 C170.43684121 67.60567335 167.93618999 67.64928724 165.43554688 67.69335938 C159.29045817 67.801526 153.1452466 67.90129831 147 68 C146.08009023 85.12333673 145.88248367 102.21205204 145.95540047 119.35557938 C145.97410044 123.76979042 145.98339328 128.18399429 145.99131775 132.59823608 C146.01518245 145.12802659 146.05162838 157.65776598 146.09594727 170.1875 C146.12051266 177.15569649 146.13785597 184.12387468 146.14750665 191.09210813 C146.1540165 195.47602266 146.16949682 199.85978196 146.19182408 204.24364305 C146.20632625 207.5981342 146.20773485 210.95260864 146.21118164 214.30712891 C146.21994324 215.51020187 146.22870483 216.71327484 146.23773193 217.95280457 C146.23642776 219.06227951 146.2351236 220.17175446 146.23377991 221.31484985 C146.23692231 222.27368387 146.24006472 223.23251789 146.24330235 224.22040749 C145.96344394 227.4176324 145.21269656 230.03249942 144 233 C143.319375 233.433125 142.63875 233.86625 141.9375 234.3125 C139.14002868 236.74900728 139.14723475 239.04203715 138.89453125 242.64453125 C139.0628556 246.403775 140.13217115 248.7312995 142 252 C142.99 252.66 143.98 253.32 145 254 C146.44966582 258.02784857 146.14764328 262.27176075 146.14526367 266.50048828 C146.14862228 267.35617401 146.1519809 268.21185974 146.15544128 269.09347534 C146.16493323 271.91910252 146.16689318 274.74467038 146.16796875 277.5703125 C146.17118134 279.5327863 146.17454542 281.49525986 146.17805481 283.45773315 C146.18404082 287.56834469 146.18589513 291.6789352 146.18530273 295.78955078 C146.18520087 301.06697579 146.19888091 306.344267 146.21607494 311.62166023 C146.22716744 315.67244084 146.22922283 319.72318875 146.22869301 323.773983 C146.22987621 325.72051329 146.23431693 327.66704434 146.24202538 329.61355972 C146.25177463 332.32857041 146.24896798 335.04328579 146.24291992 337.75830078 C146.24853943 338.56769104 146.25415894 339.3770813 146.25994873 340.21099854 C146.22831899 345.77168101 146.22831899 345.77168101 144 348 C141.22873271 348.18810219 138.55819478 348.25176684 135.78662109 348.22705078 C134.9377684 348.22734283 134.08891571 348.22763489 133.21434021 348.22793579 C130.40060301 348.22653928 127.58712861 348.21096303 124.7734375 348.1953125 C122.82573593 348.19158351 120.87803248 348.188736 118.93032837 348.18673706 C113.79775842 348.17909161 108.66530121 348.15943532 103.53277588 348.1373291 C98.29790777 348.11689028 93.06302149 348.10773955 87.828125 348.09765625 C77.55203373 348.07619027 67.27602623 348.04204336 57 348 C56.99796521 347.1256973 56.99796521 347.1256973 56.99588931 346.23373193 C56.91529527 311.71274877 56.8243638 277.19180879 56.71994839 242.67088939 C56.70742904 238.52888417 56.69499634 234.38687869 56.68261719 230.24487305 C56.68015119 229.4202503 56.6776852 228.59562756 56.67514448 227.74601624 C56.63538608 214.38174383 56.6026524 201.01746292 56.57250018 187.65316578 C56.5414213 173.94720531 56.50282727 160.24128098 56.45720994 146.53536111 C56.42928426 138.07337906 56.40726898 129.61142355 56.39273749 121.14940772 C56.38222135 115.35212245 56.36442667 109.55488845 56.34083296 103.75764176 C56.32742384 100.40947121 56.31837256 97.06143678 56.31578636 93.71323013 C56.31248362 90.08831587 56.29706021 86.46365416 56.2784729 82.83879089 C56.28040763 81.77362769 56.28234237 80.70846448 56.28433573 79.6110236 C56.27687024 78.64363328 56.26940475 77.67624296 56.26171303 76.67953777 C56.25829554 75.42361278 56.25829554 75.42361278 56.25480902 74.14231557 C56.12847884 71.70246061 56.12847884 71.70246061 54 69 C51.62177493 68.52306814 51.62177493 68.52306814 48.81591797 68.56762695 C47.71981201 68.54768677 46.62370605 68.52774658 45.49438477 68.50720215 C43.76079712 68.4978363 43.76079712 68.4978363 41.9921875 68.48828125 C40.40289429 68.46332581 40.40289429 68.46332581 38.78149414 68.43786621 C34.81286595 68.37990831 30.84389461 68.34777551 26.875 68.3125 C18.00625 68.209375 9.1375 68.10625 0 68 C0 45.56 0 23.12 0 0 Z " transform="translate(33,37)" style="fill: #8A0000;"/><path d="M0 0 C6.79924392 -0.07588365 13.59837922 -0.12852926 20.39794922 -0.16479492 C22.71244385 -0.17990853 25.02690974 -0.20039996 27.34130859 -0.22631836 C30.66250696 -0.26258841 33.98332768 -0.27970044 37.3046875 -0.29296875 C38.86411575 -0.31619453 38.86411575 -0.31619453 40.45504761 -0.33988953 C41.41589264 -0.34011612 42.37673767 -0.34034271 43.36669922 -0.34057617 C44.21497284 -0.34723801 45.06324646 -0.35389984 45.93722534 -0.36076355 C46.9582988 -0.18218559 46.9582988 -0.18218559 48 0 C48.99 1.485 48.99 1.485 50 3 C51.83549972 3.67981471 53.67296613 4.35474948 55.51953125 5.00390625 C68.10225877 10.05681258 75.67544986 17.07859555 81.0546875 29.38671875 C82.5386946 33.48920117 83.15054568 37.33428085 83.1875 41.6875 C83.20167969 42.45449219 83.21585938 43.22148438 83.23046875 44.01171875 C83 46 83 46 81 48 C78.01499895 48.04633674 75.13819917 47.96837407 72.1640625 47.79296875 C71.26505722 47.74825439 70.36605194 47.70354004 69.43980408 47.6574707 C67.50603498 47.56018824 65.57249621 47.45823898 63.63919067 47.35214233 C60.62570044 47.18753826 57.61182198 47.03662095 54.59741211 46.88989258 C47.14989323 46.52567621 39.70338747 46.14278734 32.25732422 45.75 C28.3597834 45.54559522 24.46134008 45.365494 20.5625 45.1875 C19.44117676 45.12264404 18.31985352 45.05778809 17.16455078 44.9909668 C11.36020342 44.73164389 11.36020342 44.73164389 5.83984375 46.30078125 C3.74481629 47.96159596 3.74481629 47.96159596 3 51 C3.59145334 53.18298142 3.59145334 53.18298142 5 55 C9.15822153 56.37346951 13.44292984 56.19195114 17.77734375 56.24609375 C19.57625893 56.27742678 21.37516825 56.3090973 23.17407227 56.34106445 C24.11582306 56.35642242 25.05757385 56.3717804 26.02786255 56.38760376 C40.38088505 56.63373816 54.73137962 56.96032921 69.0625 57.8125 C70.26060303 57.87042725 71.45870605 57.92835449 72.69311523 57.98803711 C73.77536377 58.06030518 74.8576123 58.13257324 75.97265625 58.20703125 C76.90343994 58.2635083 77.83422363 58.31998535 78.79321289 58.37817383 C81 59 81 59 82.31420898 61.04956055 C82.54052002 61.69320557 82.76683105 62.33685059 83 63 C35.4068324 63.2452867 35.4068324 63.2452867 21.8515625 61.48046875 C18.60012555 61.07486353 15.46011294 60.8061822 12.1875 60.75 C11.27355469 60.72421875 10.35960937 60.6984375 9.41796875 60.671875 C6.95028448 60.80958986 6.95028448 60.80958986 5.1640625 62.35546875 C3.72808812 64.01461471 3.72808812 64.01461471 4.1875 66.5625 C4.84627033 69.14441272 4.84627033 69.14441272 7 71 C9.80344692 71.3105327 12.51475293 71.49208913 15.328125 71.58984375 C16.64106537 71.64506447 16.64106537 71.64506447 17.98052979 71.70140076 C30.56427212 72.19323519 43.15905322 72.36127482 55.75 72.5625 C58.30859885 72.60581933 60.86719267 72.64943721 63.42578125 72.69335938 C69.6171338 72.79900608 75.80853777 72.90100044 82 73 C82.38218767 74.65614657 82.71395102 76.32457024 83 78 C81.27254935 79.72745065 79.03907597 79.16619691 76.73168945 79.18945312 C75.93335693 79.18880859 75.13502441 79.18816406 74.3125 79.1875 C73.46324951 79.18814453 72.61399902 79.18878906 71.73901367 79.18945312 C60.47785015 79.1049776 49.2337329 78.38711733 37.99536133 77.71166992 C33.33173531 77.4357308 28.66749148 77.19998808 24 77 C22.80670074 76.94682617 22.80670074 76.94682617 21.58929443 76.89257812 C19.25089671 76.79964674 16.91387238 76.73829782 14.57421875 76.6875 C13.86948929 76.657771 13.16475983 76.62804199 12.43867493 76.59741211 C8.90814061 76.55627788 7.30478267 76.75114379 4.52661133 79.01953125 C4.02282959 79.67308594 3.51904785 80.32664062 3 81 C4.11854586 84.72614153 4.11854586 84.72614153 7 87 C8.54045687 87.14336706 10.08666406 87.2266014 11.6328125 87.28125 C12.6444043 87.31806885 13.65599609 87.3548877 14.69824219 87.39282227 C15.82907227 87.42819092 16.95990234 87.46355957 18.125 87.5 C19.30739258 87.53988037 20.48978516 87.57976074 21.70800781 87.62084961 C42.13316803 88.2700508 62.56863422 88.60844499 83 89 C83.042721 90.66611905 83.04063832 92.33382885 83 94 C82 95 82 95 79.94970703 95.03759766 C79.06138184 94.99683105 78.17305664 94.95606445 77.2578125 94.9140625 C76.27296875 94.87023437 75.288125 94.82640625 74.2734375 94.78125 C72.71496094 94.70390625 72.71496094 94.70390625 71.125 94.625 C70.1246875 94.58117187 69.124375 94.53734375 68.09375 94.4921875 C63.39426471 94.27360679 58.73162112 93.98657186 54.0546875 93.4765625 C45.99858013 92.71021098 37.90344435 92.77676105 29.81787109 92.75976562 C26.97855761 92.74992569 24.13992974 92.71875847 21.30078125 92.6875 C19.49219175 92.68098076 17.68359715 92.67572607 15.875 92.671875 C15.0281665 92.6595282 14.18133301 92.6471814 13.30883789 92.63446045 C9.01097208 92.52412115 9.01097208 92.52412115 5.26611328 94.32305908 C3.38502335 96.81452388 3.79841326 98.97619892 4 102 C8.11595416 102.96863859 12.04627923 103.18772744 16.26879883 103.29711914 C17.33791 103.32659889 17.33791 103.32659889 18.42861938 103.35667419 C20.77133474 103.42025964 23.11415717 103.47774424 25.45703125 103.53515625 C27.0865731 103.57819071 28.71610491 103.62160737 30.34562683 103.66539001 C34.62477502 103.77933925 38.90403972 103.88810725 43.18334961 103.99578857 C47.5539561 104.10668729 51.92443216 104.22249696 56.29492188 104.33789062 C64.86316138 104.56339423 73.43153023 104.7834231 82 105 C82.66 106.65 83.32 108.3 84 110 C82.1906643 111.8093357 79.70912483 111.12867467 77.30062866 111.13885498 C76.48856964 111.13686096 75.67651062 111.13486694 74.83984375 111.1328125 C73.9947525 111.13404114 73.14966125 111.13526978 72.27896118 111.13653564 C69.49844254 111.13824473 66.71800979 111.13182363 63.9375 111.125 C62.99615204 111.12477844 62.05480408 111.12455688 61.08493042 111.12432861 C51.11695674 111.12157125 41.15763459 111.05747635 31.1953125 110.703125 C30.45074295 110.67672943 29.7061734 110.65033386 28.93904114 110.62313843 C25.46269242 110.49503372 21.98804277 110.34876122 18.51342773 110.18017578 C17.29341064 110.12845215 16.07339355 110.07672852 14.81640625 110.0234375 C13.75881104 109.97106934 12.70121582 109.91870117 11.61157227 109.86474609 C8.76252436 109.78931687 8.76252436 109.78931687 6 112 C6.27540704 115.81813447 6.27540704 115.81813447 8 119 C9.79679213 119.12339432 11.59835424 119.1779176 13.39916992 119.20532227 C14.55515182 119.22526749 15.71113373 119.24521271 16.90214539 119.26576233 C18.1654921 119.28247482 19.42883881 119.29918732 20.73046875 119.31640625 C22.67618523 119.3475779 22.67618523 119.3475779 24.66120911 119.37937927 C27.42115783 119.42343764 30.18112843 119.46432128 32.94116211 119.50268555 C36.43847383 119.55129978 39.93568236 119.60491977 43.43288708 119.66066074 C46.80288999 119.71422218 50.17292626 119.76539075 53.54296875 119.81640625 C55.39851631 119.84451134 55.39851631 119.84451134 57.29154968 119.8731842 C64.51611823 119.97454316 71.73249234 119.99502472 78.95747375 119.90879822 C82 120 82 120 87 121 C87 138.16 87 155.32 87 173 C86.34 173 85.68 173 85 173 C84.81824219 174.03640625 84.63648438 175.0728125 84.44921875 176.140625 C84.19588163 177.51052204 83.9419437 178.88030806 83.6875 180.25 C83.56955078 180.93191406 83.45160156 181.61382812 83.33007812 182.31640625 C82.57352369 186.31256557 81.63678618 188.91785851 79 192 C78.67 192.99 78.34 193.98 78 195 C72.13106201 201.17628886 64.74271145 207.34429664 56 208 C49.51844467 193.49052841 49.51844467 193.49052841 48 189.125 C47.67 188.42375 47.34 187.7225 47 187 C46.01 186.67 45.02 186.34 44 186 C42.31126121 184.35570171 40.64694485 182.68615782 39 181 C33.24088264 175.69634886 26.56643474 174.64236267 19 174 C14.78996947 174.48244674 10.89352118 175.30264646 7 177 C6.67 177.66 6.34 178.32 6 179 C6.73863281 178.97679687 7.47726562 178.95359375 8.23828125 178.9296875 C20.14868962 178.71781238 27.9536419 179.08622127 36.90625 187.515625 C42.10039666 193.67882888 43.14173536 199.66509312 43.1875 207.5 C43.20167969 208.6034375 43.21585938 209.706875 43.23046875 210.84375 C42.8756393 215.70310928 41.66141888 218.22680646 38.48046875 221.9453125 C34.60629797 227.20281105 34.78276787 233.56749111 34.3125 239.875 C33.08046498 254.46045812 33.08046498 254.46045812 31.45727539 261.07226562 C30.77225551 263.96010171 30.42234612 266.86861604 30.0625 269.8125 C26.70804873 295.86191066 26.70804873 295.86191066 23.68359375 307.03515625 C22.87025951 310.56270305 22.41376171 314.09651582 22 317.6875 C21.31172287 323.53431506 20.59045284 329.36938137 19.6875 335.1875 C19.54731445 336.24747192 19.54731445 336.24747192 19.40429688 337.32885742 C18.58741481 342.34434412 17.12732531 345.02010538 13 348 C6.37786217 349.11934481 -1.89760881 349.05119559 -8 346 C-11.51808713 341.77829544 -12.29908802 339.20616726 -11.8125 333.75 C-11.4226932 330.99136726 -10.88471096 328.65413288 -10 326 C-9.67988449 323.1044097 -9.39212678 320.21293741 -9.125 317.3125 C-8.37908506 309.70662504 -7.22313563 302.30683035 -5.7265625 294.81640625 C-4.77080275 289.79609831 -4.08775389 284.7635782 -3.4296875 279.6953125 C-3 277 -3 277 -2 275 C-1.73386844 273.33117504 -1.51321711 271.65497491 -1.31640625 269.9765625 C-1.13319824 268.45276978 -1.13319824 268.45276978 -0.94628906 266.89819336 C-0.75631348 265.27796265 -0.75631348 265.27796265 -0.5625 263.625 C0.22574935 257.02754758 1.02078387 250.46823329 2.25 243.9375 C3.26783125 237.91383353 3.26783125 237.91383353 2 232 C-0.13346178 230.09872195 -2.38337652 228.4670796 -4.70703125 226.8046875 C-10.46222526 222.27504588 -12.56359879 216.46590262 -13.73046875 209.41015625 C-14.08608321 206.23024148 -14.13894895 203.19582575 -14 200 C-16.97 200.99 -16.97 200.99 -20 202 C-20 201.34 -20 200.68 -20 200 C-20.598125 199.938125 -21.19625 199.87625 -21.8125 199.8125 C-25.01119798 198.62441218 -25.44588005 197.04607511 -27 194 C-27.62455078 192.82244141 -27.62455078 192.82244141 -28.26171875 191.62109375 C-31.75853584 184.89798697 -33.42737407 179.69273333 -33 172 C-32.34 171.01 -31.68 170.02 -31 169 C-30.34 169.99 -29.68 170.98 -29 172 C-25.07989501 172.87113444 -21.82977542 173.37871915 -18 172 C-18.30540622 169.14954192 -18.88204732 168.11058064 -21 166.125 C-24.94461361 163.33089869 -28.95386685 160.64453147 -33 158 C-32.91621094 157.37351563 -32.83242188 156.74703125 -32.74609375 156.1015625 C-32.64425781 155.28429687 -32.54242187 154.46703125 -32.4375 153.625 C-32.33308594 152.81289062 -32.22867188 152.00078125 -32.12109375 151.1640625 C-31.81762672 148.95100814 -31.81762672 148.95100814 -33 147 C-33.29751318 144.41015995 -33.54507355 141.83556724 -33.75390625 139.23828125 C-33.81907944 138.45543259 -33.88425262 137.67258392 -33.95140076 136.86601257 C-34.08878223 135.1991787 -34.22397699 133.53216341 -34.35717773 131.86499023 C-34.55811665 129.36699222 -34.76976664 126.87007099 -34.98242188 124.37304688 C-37.45524228 94.48731514 -37.45524228 94.48731514 -32 88 C-27.93548387 85 -27.93548387 85 -25 85 C-23.07763914 79.50080251 -23.07763914 79.50080251 -24.0625 74 C-25.85276688 71.72972427 -25.85276688 71.72972427 -28.6875 71.6875 C-29.450625 71.790625 -30.21375 71.89375 -31 72 C-31.33 72.99 -31.66 73.98 -32 75 C-33.485 75.495 -33.485 75.495 -35 76 C-36 75 -36 75 -36.09765625 71.18359375 C-36.09098089 69.60153318 -36.07901875 68.01948841 -36.0625 66.4375 C-36.05798828 65.63119141 -36.05347656 64.82488281 -36.04882812 63.99414062 C-36.03700518 61.99606244 -36.01906914 59.99802217 -36 58 C-35.34 58 -34.68 58 -34 58 C-33.34 59.65 -32.68 61.3 -32 63 C-30.35 63 -28.7 63 -27 63 C-26.25042843 59.52852158 -26.25042843 59.52852158 -26 56 C-27.0828125 55.7215625 -27.0828125 55.7215625 -28.1875 55.4375 C-32.15849942 53.40787807 -34.35609564 51.18250004 -36 47 C-36.29032144 42.87162911 -35.75424011 39.05729162 -35 35 C-34.84402344 34.13890625 -34.68804688 33.2778125 -34.52734375 32.390625 C-32.77896517 25.11922269 -28.61583321 19.76705052 -24 14 C-22.125 14.3125 -22.125 14.3125 -20 15 C-19.01 16.485 -19.01 16.485 -18 18 C-15.70122285 16.04919943 -15.70122285 16.04919943 -15.1875 12.625 C-13.78923739 8.35661941 -12.86340566 7.21940325 -9 5 C-6.02841164 4.12746986 -3.05401226 3.50567523 0 3 C0 2.01 0 1.02 0 0 Z " transform="translate(882,37)" style="fill: #8A0000;"/><path d="M0 0 C4.76712546 4.12812779 7.21056921 9.98570511 7.84136963 16.19094849 C8.13428383 21.40228419 8.10702184 26.60996562 8.03662109 31.82739258 C8.00040193 34.59429535 7.99560099 37.35983904 7.99609375 40.12695312 C7.84342428 78.11723275 7.84342428 78.11723275 0.296875 87.68359375 C-4.3292574 91.49907211 -10.74987897 91.28519879 -16.4375 90.75 C-20.375 90.0625 -20.375 90.0625 -21.375 89.0625 C-21.47552064 86.27325164 -21.51115888 83.50873227 -21.50439453 80.71899414 C-21.50614685 79.84423935 -21.50789917 78.96948456 -21.50970459 78.06822205 C-21.5141248 75.16134691 -21.51118427 72.25453206 -21.5078125 69.34765625 C-21.50848555 67.33605436 -21.50945559 65.32445256 -21.51071167 63.31285095 C-21.51218892 59.09015125 -21.51003344 54.86747265 -21.50537109 50.64477539 C-21.49967744 45.22269285 -21.50295034 39.80065985 -21.50894356 34.37857914 C-21.51255155 30.22228113 -21.51140942 26.06599493 -21.50881577 21.90969658 C-21.50814697 19.9101403 -21.50897328 17.91058295 -21.51129532 15.91102791 C-21.51382532 13.11912307 -21.50997612 10.32729918 -21.50439453 7.53540039 C-21.50641876 6.70259552 -21.50844299 5.86979065 -21.51052856 5.01174927 C-21.48926321 -0.70897359 -21.48926321 -0.70897359 -20.375 -2.9375 C-13.30812737 -4.93072048 -5.8538695 -4.64159429 0 0 Z " transform="translate(381.375,95.9375)" style="fill: #ffffff;"/><path d="M0 0 C5.72744117 1.57833452 11.13046799 3.39943825 16.51953125 5.8984375 C19.4748025 7.21085718 22.47601712 8.35503087 25.5 9.5 C30.01464503 11.21462128 34.43532899 13.04102353 38.83203125 15.03515625 C44.64036451 17.62012619 50.57714134 19.86296818 56.5625 22 C69.35483871 26.64516129 69.35483871 26.64516129 73.125 29.75 C74.22395134 32.57587487 74.46384072 35.04276034 73.95703125 38.0390625 C71.62740727 42.81241449 65.45162896 44.13296049 60.7578125 45.79296875 C59.30225149 46.27548989 57.84233182 46.74500917 56.37890625 47.203125 C52.6709368 48.44520344 49.11053564 50.01773393 45.51171875 51.54296875 C41.32350675 53.28068074 37.10388387 54.92682019 32.875 56.5625 C25.67778146 59.34724878 18.48717377 62.14415265 11.35546875 65.09375 C10.47503906 65.4546875 9.59460938 65.815625 8.6875 66.1875 C7.90761719 66.51105469 7.12773438 66.83460937 6.32421875 67.16796875 C3.89931696 68.03604284 1.5339556 68.55599716 -1 69 C-1.6875 67.1875 -1.6875 67.1875 -2 65 C1.49942972 60.78551653 6.88425472 58.75783686 11.93359375 56.94921875 C12.92488281 56.57410156 13.91617188 56.19898438 14.9375 55.8125 C16.34322266 55.32716797 16.34322266 55.32716797 17.77734375 54.83203125 C20.41138541 53.05049487 20.41138541 53.05049487 20.8046875 49.125 C20.90176164 47.41818485 20.9634836 45.7091834 21 44 C21.03134033 43.00637451 21.06268066 42.01274902 21.0949707 40.98901367 C21.16961779 37.72076955 21.18558267 34.45655005 21.1875 31.1875 C21.20586914 29.51010742 21.20586914 29.51010742 21.22460938 27.79882812 C21.22654297 26.72439453 21.22847656 25.64996094 21.23046875 24.54296875 C21.23457764 23.57383545 21.23868652 22.60470215 21.24291992 21.60620117 C20.98859674 18.87765847 20.5016787 17.27873987 19 15 C16.391393 13.53193667 16.391393 13.53193667 13.3125 12.4375 C11.70375 11.79941406 11.70375 11.79941406 10.0625 11.1484375 C8.28089664 10.48033624 6.49199965 9.83009448 4.6875 9.2265625 C2.8125 8.5625 2.8125 8.5625 0 7 C-1 3.875 -1 3.875 -1 1 C-0.67 0.67 -0.34 0.34 0 0 Z " transform="translate(734,51)" style="fill: #8B0000;"/><path d="M0 0 C6.89890407 5.45682546 11.29752093 11.84029882 12.7578125 20.61328125 C14.04297304 34.3710896 13.14314256 44.52858323 4.25 55.375 C-2.88466846 63.15501535 -10.4274105 66.31959808 -21.00390625 66.98828125 C-34.24793603 67.46624074 -44.46032094 66.37202397 -54.8125 57.4375 C-56.14280209 56.16417546 -57.45751488 54.87419403 -58.75 53.5625 C-59.29269531 53.07136719 -59.83539062 52.58023438 -60.39453125 52.07421875 C-61.98526554 50.30011451 -62.61023669 48.74806797 -63.375 46.5 C-64.08977554 44.43637384 -64.77242128 42.51765745 -65.75 40.5625 C-66.01682499 37.15199147 -65.98158934 33.73227999 -66 30.3125 C-66.020625 29.37019531 -66.04125 28.42789063 -66.0625 27.45703125 C-66.09311358 22.00016047 -65.69682058 18.32853125 -62.75 13.5625 C-62.5025 12.77875 -62.255 11.995 -62 11.1875 C-58.42621668 3.68255503 -52.33954033 -1.32142123 -44.75 -4.4375 C-30.072049 -9.41716053 -13.14575183 -8.89328558 0 0 Z M-53.875 9.875 C-60.36731628 19.18065333 -61.89639133 27.51053872 -60 38.6875 C-59.04062323 43.12804389 -57.67553247 46.08843019 -54.75 49.5625 C-54.09 49.5625 -53.43 49.5625 -52.75 49.5625 C-52.42 50.5525 -52.09 51.5425 -51.75 52.5625 C-40.78389636 59.58080633 -28.67724152 62.51773571 -15.75 59.9375 C-7.20261028 57.45098663 0.44815565 52.07205103 5.25 44.5625 C9.17689412 35.88125907 9.39295781 27.05202318 6.421875 18.0546875 C3.05282225 10.88983531 -2.67632234 5.84670748 -9.75 2.5625 C-10.86375 1.985 -11.9775 1.4075 -13.125 0.8125 C-26.48175025 -3.90011559 -44.24217124 -0.60778424 -53.875 9.875 Z " transform="translate(795.75,317.4375)" style="fill: #8B0000;"/><path d="M0 0 C1.03700294 0.0115638 1.03700294 0.0115638 2.09495544 0.02336121 C4.37938055 0.05262983 6.66275647 0.10365961 8.94677734 0.15527344 C10.53191294 0.18077113 12.11706827 0.20506749 13.70223999 0.22821045 C17.02292279 0.27977518 20.34321619 0.34128186 23.66357422 0.41064453 C27.92864506 0.49959995 32.19377087 0.57100688 36.45926857 0.63592911 C40.51771876 0.69856893 44.57598879 0.7705361 48.63427734 0.84277344 C49.80272123 0.86220379 49.80272123 0.86220379 50.99477005 0.88202667 C53.18805992 0.92005919 55.3811035 0.96478959 57.57421875 1.01171875 C58.8242569 1.03631165 60.07429504 1.06090454 61.36221313 1.08624268 C64.15771484 1.26464844 64.15771484 1.26464844 65.15771484 2.26464844 C65.28369557 4.65713689 65.34638864 7.01908273 65.36083984 9.41308594 C65.36653992 10.14024811 65.37223999 10.86741028 65.37811279 11.61660767 C65.38758588 13.16512593 65.39410589 14.71366456 65.39794922 16.26220703 C65.40753322 18.59543194 65.43847991 20.92772897 65.47021484 23.26074219 C65.5541316 34.83156048 64.95051942 45.05132939 57.19677734 54.25683594 C53.87836198 57.52439436 50.14986722 59.90494597 46.15771484 62.26464844 C45.16771484 62.92464844 44.17771484 63.58464844 43.15771484 64.26464844 C38.06436592 65.57213248 33.00867966 65.4856153 27.78271484 65.51464844 C26.86232422 65.53527344 25.94193359 65.55589844 24.99365234 65.57714844 C19.21378319 65.61017626 15.29320318 64.93166107 10.15771484 62.26464844 C9.12646484 61.79027344 8.09521484 61.31589844 7.03271484 60.82714844 C4.08462204 59.22492409 1.63647609 57.52469546 -0.84228516 55.26464844 C-0.84228516 54.60464844 -0.84228516 53.94464844 -0.84228516 53.26464844 C-1.83228516 52.93464844 -2.82228516 52.60464844 -3.84228516 52.26464844 C-10.54052598 42.92770668 -10.19321424 31.42513167 -10.15795898 20.35498047 C-10.15474733 18.23973346 -10.17853232 16.12582244 -10.20361328 14.01074219 C-10.20588205 12.65787935 -10.20659174 11.30501279 -10.20556641 9.95214844 C-10.21003784 8.13263672 -10.21003784 8.13263672 -10.21459961 6.27636719 C-9.84228516 3.26464844 -9.84228516 3.26464844 -8.74665833 1.59295654 C-5.85996542 -0.42052361 -3.48720087 -0.05965248 0 0 Z M12.67306519 6.58404541 C10.67663648 6.63912639 8.67998836 6.6860574 6.68334961 6.73291016 C5.46832764 6.77174316 4.25330566 6.81057617 3.00146484 6.85058594 C1.92058594 6.88200684 0.83970703 6.91342773 -0.27392578 6.94580078 C-3.00509093 7.01771729 -3.00509093 7.01771729 -4.84228516 9.26464844 C-6.48675305 21.41946278 -7.23766801 36.33901849 -0.08447266 46.79589844 C6.23968417 53.75908156 12.47875162 58.10681636 21.96240234 59.15917969 C32.69871541 59.51355677 41.41452051 58.86665232 50.15771484 52.26464844 C58.22244717 44.21949071 60.28187336 36.58582782 60.34326172 25.44042969 C60.34422852 23.80654297 60.34422852 23.80654297 60.34521484 22.13964844 C60.35746094 21.04265625 60.36970703 19.94566406 60.38232422 18.81542969 C60.38425781 17.76484375 60.38619141 16.71425781 60.38818359 15.63183594 C60.39229248 14.67390137 60.39640137 13.7159668 60.40063477 12.72900391 C60.32769925 10.01002255 60.32769925 10.01002255 58.15771484 7.26464844 C54.78209977 6.2699486 51.53984807 6.13636667 48.03662109 6.13183594 C46.53035156 6.12869385 46.53035156 6.12869385 44.99365234 6.12548828 C43.91341797 6.13016113 42.83318359 6.13483398 41.72021484 6.13964844 C40.59744141 6.14303223 39.47466797 6.14641602 38.31787109 6.14990234 C29.7677072 6.20029393 21.21991599 6.34387389 12.67306519 6.58404541 Z " transform="translate(741.84228515625,207.7353515625)" style="fill: #8B0000;"/><path d="M0 0 C1.02786621 -0.00637985 2.05573242 -0.0127597 3.11474609 -0.01933289 C4.21898926 -0.02044571 5.32323242 -0.02155853 6.4609375 -0.02270508 C7.59998535 -0.02603348 8.7390332 -0.02936188 9.91259766 -0.03279114 C12.31998287 -0.03785187 14.7273751 -0.04019973 17.13476562 -0.04003906 C20.82173156 -0.04222789 24.50839941 -0.06039934 28.1953125 -0.0793457 C30.53385314 -0.08227929 32.87239521 -0.08426432 35.2109375 -0.08520508 C36.86730225 -0.09598335 36.86730225 -0.09598335 38.55712891 -0.10697937 C39.58499512 -0.10390274 40.61286133 -0.10082611 41.671875 -0.09765625 C43.02611572 -0.09979378 43.02611572 -0.09979378 44.40771484 -0.10197449 C46.98324348 0.16026216 48.61868894 0.84337649 50.8359375 2.14526367 C50.5059375 3.13526367 50.1759375 4.12526367 49.8359375 5.14526367 C46.93219357 6.11317831 45.06919243 6.27480778 42.04833984 6.28710938 C40.59069717 6.29766106 40.59069717 6.29766106 39.10360718 6.3084259 C37.52864975 6.31467232 37.52864975 6.31467232 35.921875 6.32104492 C33.69400107 6.34425302 31.46613647 6.36837075 29.23828125 6.39331055 C25.72959238 6.42834354 22.22124438 6.45772411 18.71240234 6.47119141 C15.32347286 6.48674134 11.93553889 6.52700723 8.546875 6.57104492 C7.50904877 6.56913651 6.47122253 6.56722809 5.40194702 6.56526184 C-2.69629507 6.70006652 -8.92337646 8.31828223 -15.1015625 13.70776367 C-20.63415307 20.2462798 -20.82271368 26.84398753 -20.1640625 35.14526367 C-19.102158 39.68938747 -17.5053488 44.09805873 -15.1640625 48.14526367 C-12.74023173 49.31479783 -12.74023173 49.31479783 -10.1640625 50.14526367 C-9.1740625 50.80526367 -8.1840625 51.46526367 -7.1640625 52.14526367 C-1.02115389 53.40441317 5.17052442 53.34602905 11.421875 53.42651367 C13.06816391 53.45412781 13.06816391 53.45412781 14.74771118 53.4822998 C19.42594977 53.56076258 24.10432027 53.62907665 28.78271484 53.69750977 C32.20417825 53.7490421 35.62551079 53.80632346 39.046875 53.86401367 C40.1134433 53.87758911 41.1800116 53.89116455 42.27890015 53.90515137 C43.25726837 53.9218689 44.2356366 53.93858643 45.24365234 53.95581055 C46.54101822 53.97460266 46.54101822 53.97460266 47.86459351 53.99377441 C49.8359375 54.14526367 49.8359375 54.14526367 50.8359375 55.14526367 C50.87657582 56.81143482 50.8786585 58.47914462 50.8359375 60.14526367 C43.41201904 60.26154585 35.98829961 60.35017376 28.56365204 60.40432453 C25.11534769 60.43032573 21.66767021 60.46554556 18.21972656 60.52246094 C14.24812544 60.58760376 10.27677066 60.61152273 6.3046875 60.63354492 C5.07729858 60.65935135 3.84990967 60.68515778 2.58532715 60.71174622 C-4.7435009 60.71413099 -9.47816148 59.89274274 -15.1640625 55.14526367 C-15.88078125 54.58323242 -16.5975 54.02120117 -17.3359375 53.44213867 C-24.62947807 46.29302465 -26.55650144 39.76857606 -26.7265625 29.70776367 C-26.70842033 22.2237561 -25.63993278 16.36352631 -21.1640625 10.14526367 C-20.5040625 10.14526367 -19.8440625 10.14526367 -19.1640625 10.14526367 C-19.04998047 9.2384082 -19.04998047 9.2384082 -18.93359375 8.31323242 C-17.89336442 5.38263709 -16.57531269 4.87090411 -13.8515625 3.45776367 C-13.07167969 3.04139648 -12.29179688 2.6250293 -11.48828125 2.19604492 C-7.60427244 0.44008128 -4.25033013 0.01794519 0 0 Z " transform="translate(756.1640625,131.854736328125)" style="fill: #8B0000;"/><path d="M0 0 C9.57193525 1.93651869 18.18890248 5.394362 27.10986328 9.23730469 C28.84494414 9.9374329 30.63329247 10.50154757 32.421875 11.05078125 C35 12 35 12 36.375 14.625 C36.58125 15.40875 36.7875 16.1925 37 17 C33.8247135 19.68678088 30.94763234 20.75722685 27 22 C25.47456623 22.59245522 23.95417323 23.19796465 22.4375 23.8125 C21.16132812 24.32296875 21.16132812 24.32296875 19.859375 24.84375 C17.78087404 25.68423673 15.70874185 26.54052667 13.640625 27.40625 C11.93132813 28.10234375 11.93132813 28.10234375 10.1875 28.8125 C9.12917969 29.25207031 8.07085938 29.69164063 6.98046875 30.14453125 C3.81238867 31.05384912 2.11808509 30.93946002 -1 30 C-1.82193253 24.24647231 -2.13444304 18.55973674 -2.1875 12.75 C-2.20039062 12.06486328 -2.21328125 11.37972656 -2.2265625 10.67382812 C-2.23438801 6.66325543 -1.76937664 3.60868912 0 0 Z " transform="translate(762,70)" style="fill: #ffffff;"/><path d="M0 0 C0.67661682 -0.00350464 1.35323364 -0.00700928 2.050354 -0.01062012 C4.29295027 -0.01944112 6.5352324 -0.01358585 8.77783203 -0.00683594 C10.33480897 -0.0081828 11.89178549 -0.01012351 13.44876099 -0.01263428 C16.71555578 -0.01558629 19.98224133 -0.01128664 23.24902344 -0.00195312 C27.43448559 0.00942262 31.61969071 0.00289446 35.80514336 -0.00909805 C39.02220591 -0.01633074 42.23920772 -0.01402193 45.45627213 -0.00884247 C46.99922847 -0.00750889 48.54219034 -0.00914349 50.08514023 -0.01380157 C52.24440826 -0.0188879 54.40326271 -0.01112646 56.5625 0 C58.40544144 0.00238678 58.40544144 0.00238678 60.28561401 0.00482178 C63.2482124 0.24558841 64.92094571 0.70061876 67.41064453 2.25878906 C66.59814453 4.19628906 66.59814453 4.19628906 65.41064453 6.25878906 C61.98026159 7.40225004 59.35432703 7.37890506 55.73608398 7.37231445 C55.06264954 7.37246048 54.38921509 7.37260651 53.69537354 7.37275696 C51.47152475 7.37206081 49.24775992 7.36428238 47.02392578 7.35644531 C45.4812169 7.35458007 43.93850742 7.35315667 42.39579773 7.35215759 C38.33680585 7.34834076 34.2778498 7.33851757 30.21887207 7.32745361 C26.07642094 7.31722159 21.93396403 7.31265613 17.79150391 7.30761719 C9.66453435 7.29689457 1.5375939 7.27982813 -6.58935547 7.25878906 C-7.24935547 5.60878906 -7.90935547 3.95878906 -8.58935547 2.25878906 C-5.76789815 -0.56266826 -3.95228877 0.00512522 0 0 Z " transform="translate(740.58935546875,288.7412109375)" style="fill: #8B0000;"/><path d="M0 0 C0.55429687 0.14695312 1.10859375 0.29390625 1.6796875 0.4453125 C5.00757389 1.24086783 8.38163895 1.75367995 11.7578125 2.3046875 C14 3 14 3 16 6 C16.3125 8.5625 16.3125 8.5625 16 11 C15.01 11.66 14.02 12.32 13 13 C11.7811879 16.55672179 11.7811879 16.55672179 11 20 C6.62065881 19.48041715 2.31196609 18.94324258 -2 18 C-3.17754283 12.89731442 -3.11736682 8.10102242 -2 3 C-1.34 2.01 -0.68 1.02 0 0 Z " transform="translate(414,98)" style="fill: #ffffff;"/><path d="M0 0 C2.75 0.25 2.75 0.25 5 1 C5.33 1.99 5.66 2.98 6 4 C4.625 6.5 4.625 6.5 3 9 C2.10869587 11.6739124 1.52268466 14.23723823 1 17 C-0.32 17 -1.64 17 -3 17 C-3.33 15.68 -3.66 14.36 -4 13 C-4.721875 13.639375 -5.44375 14.27875 -6.1875 14.9375 C-8.98191184 16.98673535 -10.61663274 17.61332946 -14 18 C-15.1875 16.4375 -15.1875 16.4375 -16 14 C-13.375 6.125 -13.375 6.125 -10 4 C-8.5459375 4.0309375 -8.5459375 4.0309375 -7.0625 4.0625 C-3.87495953 4.35107516 -3.87495953 4.35107516 -1.9375 1.9375 C-1.298125 1.298125 -0.65875 0.65875 0 0 Z " transform="translate(864,128)" style="fill: #ffffff;"/><path d="M0 0 C2.00451121 0.30503431 4.00448218 0.64080679 6 1 C8.27650745 0.6422386 8.27650745 0.6422386 10 0 C10.6875 2.3125 10.6875 2.3125 11 5 C9.6875 6.625 9.6875 6.625 8 8 C7.01 9.485 7.01 9.485 6 11 C5.34 11 4.68 11 4 11 C3.67 13.97 3.34 16.94 3 20 C1.68 19.67 0.36 19.34 -1 19 C-1.73814969 13.30570242 -2.30231641 7.74401172 -2 2 C-1.34 1.34 -0.68 0.68 0 0 Z " transform="translate(414,60)" style="fill: #ffffff;"/><path d="M0 0 C0.99 0.33 1.98 0.66 3 1 C3.33 2.98 3.66 4.96 4 7 C5.98 7 7.96 7 10 7 C9.67 8.32 9.34 9.64 9 11 C7.35 10.67 5.7 10.34 4 10 C3.67 12.64 3.34 15.28 3 18 C1.68 18 0.36 18 -1 18 C-2.66666667 14.66666667 -4.33333333 11.33333333 -6 8 C-5.38125 7.4225 -4.7625 6.845 -4.125 6.25 C-2.18652947 4.19750179 -1.09985751 2.56633418 0 0 Z " transform="translate(654,223)" style="fill: #ffffff;"/><path d="M0 0 C1.32 0.66 2.64 1.32 4 2 C4 9.92 4 17.84 4 26 C2.02 26.99 2.02 26.99 0 28 C-1.29361994 25.41276011 -1.12948949 23.51886997 -1.1328125 20.625 C-1.13410156 19.55765625 -1.13539063 18.4903125 -1.13671875 17.390625 C-1.13285156 16.27171875 -1.12898437 15.1528125 -1.125 14 C-1.12886719 12.88109375 -1.13273438 11.7621875 -1.13671875 10.609375 C-1.13542969 9.54203125 -1.13414062 8.4746875 -1.1328125 7.375 C-1.13168457 6.39273438 -1.13055664 5.41046875 -1.12939453 4.3984375 C-1 2 -1 2 0 0 Z " transform="translate(646,85)" style="fill: #ffffff;"/><path d="M0 0 C2.10295343 4.64863389 2.23507888 8.05968448 1 13 C-2 15 -2 15 -4.625 14.6875 C-7 14 -7 14 -8 13 C-8.203125 10.8203125 -8.203125 10.8203125 -8.25 8.125 C-8.27578125 7.24070312 -8.3015625 6.35640625 -8.328125 5.4453125 C-8 3 -8 3 -6.671875 1.2421875 C-4.23397157 -0.56915196 -2.82062875 -1.41031437 0 0 Z " transform="translate(440,103)" style="fill: #ffffff;"/><path d="M0 0 C2.0625 0.4375 2.0625 0.4375 4 1 C5.01202288 8.17757765 4.88826175 14.81191259 4 22 C2.0625 22.5625 2.0625 22.5625 0 23 C-1.62200515 21.37799485 -1.1299075 19.57976969 -1.1328125 17.34375 C-1.13410156 16.40402344 -1.13539063 15.46429688 -1.13671875 14.49609375 C-1.13285156 13.50738281 -1.12898437 12.51867187 -1.125 11.5 C-1.12886719 10.51128906 -1.13273438 9.52257812 -1.13671875 8.50390625 C-1.13542969 7.56417969 -1.13414062 6.62445313 -1.1328125 5.65625 C-1.13168457 4.78806641 -1.13055664 3.91988281 -1.12939453 3.02539062 C-1 1 -1 1 0 0 Z " transform="translate(863,62)" style="fill: #ffffff;"/><path d="M0 0 C1.01765927 1.99107248 2.01577854 3.99218823 3 6 C5.06167261 8.31418291 5.06167261 8.31418291 7 10 C6.67 10.66 6.34 11.32 6 12 C4.741875 12.04125 3.48375 12.0825 2.1875 12.125 C1.47980469 12.14820313 0.77210938 12.17140625 0.04296875 12.1953125 C-2 12 -2 12 -5 10 C-5.83902226 6.15448132 -6.25360525 3.76081574 -5 0 C-3 -1 -3 -1 0 0 Z " transform="translate(417,134)" style="fill: #ffffff;"/><path d="M0 0 C1.38294718 0.01329757 2.76582404 0.03715018 4.1484375 0.0703125 C4.85484375 0.07933594 5.56125 0.08835938 6.2890625 0.09765625 C8.03399848 0.12123647 9.77876045 0.15710789 11.5234375 0.1953125 C12.6484375 3.9453125 12.6484375 3.9453125 11.5234375 6.1953125 C9.44125388 6.30363419 7.35744621 6.38104791 5.2734375 6.4453125 C3.53320312 6.51492187 3.53320312 6.51492187 1.7578125 6.5859375 C-2.05322263 6.12566756 -3.13168005 5.14382806 -5.4765625 2.1953125 C-3.4765625 0.1953125 -3.4765625 0.1953125 0 0 Z " transform="translate(608.4765625,228.8046875)" style="fill: #ffffff;"/><path d="M0 0 C3.73584906 1.47169811 3.73584906 1.47169811 5 4 C7.35599235 4.46751788 7.35599235 4.46751788 10.0625 4.625 C10.98160156 4.69976562 11.90070313 4.77453125 12.84765625 4.8515625 C13.55792969 4.90054688 14.26820313 4.94953125 15 5 C15 6.32 15 7.64 15 9 C12.56065775 9.13501894 10.12875896 9.23403897 7.6875 9.3125 C6.65206055 9.3753418 6.65206055 9.3753418 5.59570312 9.43945312 C3.57421875 9.48828125 3.57421875 9.48828125 0 9 C-2.04296875 6.66796875 -2.04296875 6.66796875 -3 4 C-2 1 -2 1 0 0 Z " transform="translate(422,80)" style="fill: #ffffff;"/><path d="M0 0 C1.13115234 0.07831055 1.13115234 0.07831055 2.28515625 0.15820312 C4.1487937 0.28795004 6.01194996 0.42457488 7.875 0.5625 C7.875 1.8825 7.875 3.2025 7.875 4.5625 C2.265 4.5625 -3.345 4.5625 -9.125 4.5625 C-9.455 3.2425 -9.785 1.9225 -10.125 0.5625 C-6.91158631 -1.04420684 -3.49541032 -0.26260855 0 0 Z " transform="translate(92.125,80.4375)" style="fill: #ffffff;"/><path d="M0 0 C0.33 0.99 0.66 1.98 1 3 C-1.45705917 5.6325634 -3.54104856 7.84701619 -7 9 C-9.75 8.625 -9.75 8.625 -12 8 C-11.8125 5.6875 -11.8125 5.6875 -11 3 C-7.38920743 0.00820044 -4.60388896 -0.32120156 0 0 Z " transform="translate(448,165)" style="fill: #ffffff;"/><path d="M0 0 C0.66 1.65 1.32 3.3 2 5 C-1.2837938 7.48772258 -2.61198583 8.03180444 -6.8125 7.6875 C-8.3903125 7.3471875 -8.3903125 7.3471875 -10 7 C-10 5.68 -10 4.36 -10 3 C-6.66954606 0.33563684 -4.2225435 -0.3619323 0 0 Z " transform="translate(88,62)" style="fill: #ffffff;"/><path d="M0 0 C0.99 0.33 1.98 0.66 3 1 C3.02693575 3.12493141 3.04636628 5.24995912 3.0625 7.375 C3.07410156 8.55835937 3.08570313 9.74171875 3.09765625 10.9609375 C3 14 3 14 2 16 C1.01 15.67 0.02 15.34 -1 15 C-2.50913724 10.47258828 -2.77429281 5.93573202 -1 1.5 C-0.67 1.005 -0.34 0.51 0 0 Z " transform="translate(646,65)" style="fill: #ffffff;"/><path d="M0 0 C0.721875 0.268125 1.44375 0.53625 2.1875 0.8125 C1.71447634 5.06971298 -0.62268931 7.14196082 -3.8125 9.8125 C-5.1325 9.8125 -6.4525 9.8125 -7.8125 9.8125 C-8.125 7.625 -8.125 7.625 -7.8125 4.8125 C-3.95043103 -0.26336207 -3.95043103 -0.26336207 0 0 Z " transform="translate(110.8125,93.1875)" style="fill: #ffffff;"/><path d="M0 0 C2.31 0 4.62 0 7 0 C7.625 2.375 7.625 2.375 8 5 C7.34 5.66 6.68 6.32 6 7 C2.70720291 6.68134222 1.13464912 5.45484649 -1 3 C-0.67 2.01 -0.34 1.02 0 0 Z " transform="translate(427,93)" style="fill: #ffffff;"/><path d="M0 0 C3.125 0.375 3.125 0.375 6 1 C6 5 6 5 4 7 C1.375 6.625 1.375 6.625 -1 6 C-1.625 4.125 -1.625 4.125 -2 2 C-1.34 1.34 -0.68 0.68 0 0 Z " transform="translate(897,176)" style="fill: #ffffff;"/><path d="M0 0 C2.5 0.1875 2.5 0.1875 5 1 C5.66 1.99 6.32 2.98 7 4 C6.67 4.99 6.34 5.98 6 7 C3.69 6.67 1.38 6.34 -1 6 C-1.625 4.125 -1.625 4.125 -2 2 C-1.34 1.34 -0.68 0.68 0 0 Z " transform="translate(430,56)" style="fill: #ffffff;"/><path d="M0 0 C1.9375 0.125 1.9375 0.125 4 1 C5.25 3.5625 5.25 3.5625 6 6 C4.35 6.66 2.7 7.32 1 8 C-1 6 -1 6 -1.1875 3.4375 C-1 1 -1 1 0 0 Z " transform="translate(118,81)" style="fill: #ffffff;"/><path d="M0 0 C1.65 0 3.3 0 5 0 C5 1.32 5 2.64 5 4 C3.35 4 1.7 4 0 4 C0 2.68 0 1.36 0 0 Z " transform="translate(426,73)" style="fill: #ffffff;"/><path d="M0 0 C0.66 0.33 1.32 0.66 2 1 C1.67 2.65 1.34 4.3 1 6 C0.01 6 -0.98 6 -2 6 C-1.125 1.125 -1.125 1.125 0 0 Z " transform="translate(451,176)" style="fill: #ffffff;"/><path d="M0 0 C0 0.99 0 1.98 0 3 C-1.65 3 -3.3 3 -5 3 C-5.33 2.01 -5.66 1.02 -6 0 C-3 -1 -3 -1 0 0 Z " transform="translate(448,154)" style="fill: #ffffff;"/><path d="M0 0 C2.97 0.495 2.97 0.495 6 1 C4.515 2.485 4.515 2.485 3 4 C1.68 3.34 0.36 2.68 -1 2 C-0.67 1.34 -0.34 0.68 0 0 Z " transform="translate(426,121)" style="fill: #ffffff;"/><path d="M0 0 C0.66 0 1.32 0 2 0 C2.33 1.65 2.66 3.3 3 5 C1.68 5 0.36 5 -1 5 C-0.67 3.35 -0.34 1.7 0 0 Z " transform="translate(110,83)" style="fill: #ffffff;"/><path d="M0 0 C0.66 0 1.32 0 2 0 C2.66 1.65 3.32 3.3 4 5 C2.68 5 1.36 5 0 5 C0 3.35 0 1.7 0 0 Z " transform="translate(678,223)" style="fill: #8B0000;"/><path d="M0 0 C0.66 0.33 1.32 0.66 2 1 C1.67 2.65 1.34 4.3 1 6 C0.01 5.34 -0.98 4.68 -2 4 C-2 3.01 -2 2.02 -2 1 C-1.34 0.67 -0.68 0.34 0 0 Z " transform="translate(99,65)" style="fill: #ffffff;"/></svg>